<mxfile host="multicloud-diagrams" agent="PIP package multicloud-diagrams. Generate resources in draw.io compatible format for Cloud infrastructure. Copyrights @ Roman Tsypuk 2023. MIT license." type="MultiCloud"><diagram id="diagram_1" name="AWS components"><mxGraphModel dx="1015" dy="661" grid="1" gridSize="10" guides="1" tooltips="1" connect="1" arrows="1" fold="1" page="1" pageScale="1" pageWidth="850" pageHeight="1100" math="0" shadow="1"><root><mxCell id="0" /><mxCell id="1" parent="0" /><mxCell id="vertex:non_existing_super_cloud_service:arn:aws:non_existing_super_cloud_service:eu-west-1:123456789012:mock_data" value="&lt;b&gt;Name&lt;/b&gt;: non_existing_super_cloud_service&lt;BR&gt;&lt;b&gt;ID&lt;/b&gt;: arn:aws:non_existing_super_cloud_service:eu-west-1:123456789012:mock_data&lt;BR&gt;-----------&lt;BR&gt;&lt;b&gt;Owner&lt;/b&gt;: 123456789012&lt;BR&gt;&lt;b&gt;CDC Offset&lt;/b&gt;: 3&lt;BR&gt;&lt;b&gt;Throttling&lt;/b&gt;: 100" style="sketch=0;aspect=fixed;html=1;align=left;image;fontSize=12;image=img/lib/mscae/Info.svg;labelBackgroundColor=none;" parent="1" vertex="1"><mxGeometry width="78" height="78" as="geometry" /></mxCell></root></mxGraphModel></diagram></mxfile>